<svg width="21" height="21" viewBox="0 0 21 21" fill="none" xmlns="http://www.w3.org/2000/svg">
<path d="M17.3649 5.86398C17.2803 5.77866 17.1796 5.71094 17.0687 5.66473C16.9577 5.61852 16.8388 5.59473 16.7186 5.59473C16.5984 5.59473 16.4794 5.61852 16.3685 5.66473C16.2576 5.71094 16.1569 5.77866 16.0723 5.86398L9.29086 12.6545L6.44174 9.79631C6.35388 9.71144 6.25016 9.6447 6.13651 9.59991C6.02286 9.55513 5.9015 9.53316 5.77936 9.53527C5.65722 9.53739 5.53669 9.56354 5.42466 9.61223C5.31263 9.66092 5.21128 9.73121 5.12641 9.81907C5.04154 9.90693 4.9748 10.0106 4.93001 10.1243C4.88523 10.2379 4.86326 10.3593 4.86537 10.4814C4.86749 10.6036 4.89364 10.7241 4.94233 10.8361C4.99102 10.9482 5.06131 11.0495 5.14917 11.1344L8.64457 14.6298C8.72919 14.7151 8.82987 14.7828 8.94079 14.829C9.05171 14.8753 9.17069 14.899 9.29086 14.899C9.41102 14.899 9.53 14.8753 9.64092 14.829C9.75185 14.7828 9.85252 14.7151 9.93714 14.6298L17.3649 7.20206C17.4573 7.11683 17.531 7.01337 17.5814 6.89823C17.6319 6.78308 17.6579 6.65873 17.6579 6.53302C17.6579 6.40731 17.6319 6.28297 17.5814 6.16782C17.531 6.05267 17.4573 5.94922 17.3649 5.86398Z" fill="black"/>
<path d="M15.3055 3.67109C15.5707 3.31548 15.499 2.80884 15.1215 2.57596C13.6645 1.67728 11.9787 1.20403 10.2561 1.21903C8.26486 1.23637 6.33408 1.90517 4.75878 3.12323C3.18348 4.34129 2.0503 6.04161 1.53241 7.96438C1.01451 9.88714 1.14038 11.9266 1.89078 13.7711C2.64119 15.6156 3.97485 17.1636 5.68798 18.1787C7.4011 19.1938 9.39947 19.6201 11.3777 19.3925C13.3559 19.1649 15.2052 18.2958 16.643 16.9181C17.8868 15.7263 18.7635 14.2105 19.1792 12.5499C19.287 12.1196 18.9846 11.7068 18.5465 11.6373C18.1083 11.5679 17.7011 11.8685 17.5852 12.2967C17.2297 13.611 16.5219 14.8092 15.5316 15.7582C14.3471 16.8931 12.8237 17.6091 11.1941 17.7966C9.5644 17.9841 7.91816 17.6329 6.5069 16.7967C5.09563 15.9605 3.99697 14.6852 3.37879 13.1657C2.76062 11.6462 2.65693 9.96614 3.08357 8.38218C3.5102 6.79822 4.44371 5.39751 5.74143 4.39408C7.03915 3.39065 8.62971 2.8397 10.2701 2.82541C11.6416 2.81347 12.9849 3.17727 14.157 3.87008C14.5389 4.0958 15.0403 4.02669 15.3055 3.67109Z" fill="black"/>
</svg>
