<svg width="132" height="124" viewBox="0 0 132 124" fill="none" xmlns="http://www.w3.org/2000/svg">
<path d="M102.484 59.5462C102.388 60.7909 102.234 61.8407 102.24 62.8891C102.261 67.094 101.608 71.2787 101.932 75.4952C102.205 79.0446 102.378 82.6012 102.556 86.1563C102.618 87.3809 102.556 88.6112 102.567 89.8371C102.595 92.9879 102.657 96.1373 102.658 99.2882C102.658 102.609 102.602 105.931 102.576 109.252C102.567 110.407 102.108 111.297 101.172 112.008C98.3382 114.164 95.4899 116.301 92.294 117.894C90.3446 118.865 88.3593 119.797 86.3118 120.528C84.5328 121.162 82.657 121.546 80.8029 121.937C77.7253 122.586 74.6491 123.285 71.5383 123.708C69.4331 123.997 67.2674 123.839 65.1305 123.887C61.1357 123.993 57.1459 123.536 53.2787 122.528C48.6038 121.29 44.0443 119.744 39.9278 117.084C37.0854 115.246 34.0784 113.646 31.3384 111.671C29.3299 110.227 27.6331 108.341 25.8035 106.644C25.577 106.433 25.414 106.153 25.1889 105.938C24.5497 105.324 24.3232 104.559 24.378 103.708C24.6478 99.5827 24.9551 95.4586 25.2048 91.3317C25.351 88.9057 25.4472 86.4779 25.4933 84.0481C25.616 78.2028 25.743 72.3516 25.7819 66.5121C25.7963 63.8204 25.5914 61.1288 25.4832 58.4372C25.4832 58.2726 25.4385 58.1094 25.3981 57.8191C25.0403 58.0791 24.7315 58.2769 24.453 58.5108C22.3031 60.3231 20.1662 62.1512 18.0106 63.9576C17.3844 64.4818 16.7322 64.9785 16.0598 65.4406C15.2417 66.0023 14.3976 66.0457 13.607 65.367C11.206 63.2992 8.79497 61.2414 6.41856 59.1433C4.58034 57.5217 2.79551 55.8394 0.973158 54.1976C-0.132083 53.1998 -0.290796 52.7175 0.471041 51.454C2.46798 48.1414 4.56447 44.8881 6.54842 41.5668C9.59576 36.4623 13.5867 32.0682 17.1478 27.3506C18.3352 25.7766 19.6122 24.2705 20.7982 22.6951C21.8763 21.242 23.2916 20.0734 24.9219 19.2901C27.623 17.9833 30.2822 16.5913 32.9703 15.2585C36.0653 13.7249 39.1746 12.2131 42.2783 10.6968C42.7948 10.4441 43.32 10.2044 43.8539 9.99073C44.3113 9.80734 44.5335 9.54741 44.4945 9.01313C44.4659 8.65917 44.5503 8.30525 44.7355 8.00233C46.0725 6.12415 47.4346 4.26331 48.8217 2.4198C49.3729 1.6848 50.1116 1.33679 51.0654 1.16206C56.0043 0.261002 60.9736 -0.2083 65.9832 0.0891659C69.3105 0.285551 72.6204 0.704316 75.939 1.0581C78.086 1.28625 80.2215 1.64437 82.3713 1.8162C83.5256 1.91006 84.4332 2.36493 85.0912 3.22411C86.4345 4.97569 87.9076 6.67962 88.9162 8.61747C89.6261 9.98062 90.6289 10.6954 91.825 11.3986C96.8751 14.3661 102.173 16.8945 106.975 20.2908C108.847 21.6408 110.592 23.1595 112.187 24.8279C114.418 27.1167 116.756 29.3043 118.873 31.6942C120.99 34.084 122.897 36.6572 124.878 39.1655C125.383 39.8051 125.815 40.5041 126.294 41.1654C127.366 42.6455 128.356 44.1545 129.074 45.8657C129.685 47.3097 130.572 48.6555 131.394 50.0085C131.806 50.6857 131.788 51.2662 131.315 51.8626C127.93 56.1378 124.545 60.4135 121.159 64.6897C120.421 65.6211 119.455 65.5893 118.469 65.3121C116.784 64.837 115.087 64.3778 113.445 63.7757C110.878 62.8356 108.356 61.7757 105.808 60.7822C104.766 60.3592 103.707 59.9938 102.484 59.5462ZM44.5522 11.1272C42.5668 12.0889 40.7286 12.9582 38.9077 13.8636C36.009 15.3076 33.1103 16.7516 30.2332 18.2346C29.0616 18.8396 27.9982 19.6786 26.7905 20.1854C24.7517 21.0388 23.1342 22.3702 21.7635 24.051C18.2823 28.3176 14.8069 32.5899 11.3373 36.868C7.60315 41.4975 4.94682 46.8014 1.99759 51.9218C1.70902 52.4157 1.83599 52.7334 2.22989 53.0958C5.7909 56.3621 9.25235 59.7469 12.9259 62.8804C14.9099 64.5728 14.5203 64.6031 16.7351 62.9569C19.1447 61.1664 21.4692 59.2603 23.8326 57.4062C24.2654 57.0639 24.6868 56.7015 25.1442 56.3954C25.7213 56.004 26.3605 56.1557 26.6505 56.7881C26.8207 57.1838 26.9184 57.6069 26.9391 58.0372C27.0055 59.1419 27.0358 60.2494 27.0473 61.3584C27.0733 64.2681 27.1194 67.1792 27.0848 70.0889C27.0617 72.0556 26.8713 74.0209 26.8366 75.9876C26.7717 79.5226 26.9145 83.0633 26.7039 86.5939C26.3922 91.8486 25.6261 97.0702 25.9262 102.365C25.978 103.753 26.5246 105.077 27.4672 106.097C30.2375 109.23 33.6023 111.643 37.0926 113.857C42.9463 117.571 49.2747 120.18 56.1096 121.464C57.9854 121.818 59.8885 122.024 61.8667 122.31C61.8667 121.836 61.8667 121.553 61.8667 121.272C61.8811 116.895 61.8566 112.517 61.923 108.141C62.0124 102.296 62.1798 96.4521 62.2981 90.6082C62.363 87.4314 62.3501 84.2546 62.4424 81.0778C62.5463 77.81 62.8031 74.5465 62.8868 71.2773C62.9907 67.2615 62.9936 63.2414 63.0311 59.2242C63.085 52.8272 63.133 46.4298 63.1754 40.0319C63.1869 38.2615 63.1754 36.4926 63.1754 34.6587C62.0211 35.4905 61.9085 35.4905 60.76 34.7439C60.5984 34.6399 60.4267 34.5518 60.2608 34.4551C57.5063 32.8349 54.723 31.2595 52.0032 29.5816C49.7033 28.1636 47.601 26.4784 45.8335 24.412C45.5752 24.1102 45.2967 23.7435 45.2333 23.3709C44.9634 21.7825 44.6475 20.1941 44.5753 18.6057C44.4714 16.1725 44.5522 13.7408 44.5522 11.1272ZM89.704 11.7741C89.5684 14.3834 89.5597 17.1169 89.2293 19.7984C89.0749 21.0764 88.3636 22.3023 87.8139 23.5066C87.6162 23.9398 87.1429 24.2503 86.7851 24.6041C85.221 26.1578 83.7551 27.8286 82.0582 29.2249C79.9358 30.9823 77.6402 32.5346 75.3878 34.1345C75.0719 34.3584 74.5221 34.5013 74.1859 34.3887C73.6743 34.1971 73.2178 33.8822 72.857 33.4717C72.3015 32.8681 71.847 32.1721 71.2699 31.3909C71.2699 32.7079 71.2886 33.8775 71.2699 35.0457C71.1977 38.9142 71.0708 42.7827 71.0405 46.6526C71.0145 50.1414 71.1545 53.6301 71.0996 57.1174C71.0131 62.6234 70.7519 68.1279 70.6956 73.6339C70.6191 81.2872 70.6956 88.9404 70.6466 96.5821C70.6249 100.192 70.5109 103.802 70.384 107.405C70.2512 111.2 70.0738 114.995 69.8717 118.787C69.8126 119.924 69.6048 121.054 69.4576 122.252C69.8065 122.274 70.1563 122.274 70.5052 122.252C71.7879 122.07 73.0778 121.913 74.3475 121.662C79.8305 120.571 85.3032 119.514 90.5264 117.366C93.8271 116.039 96.8486 114.102 99.4333 111.656C100.58 110.567 101.188 109.418 101.15 107.767C101.075 104.591 101.217 101.421 101.269 98.2485C101.299 96.3958 101.422 94.5403 101.348 92.6934C101.146 87.6235 100.843 82.5579 100.627 77.4894C100.521 75.1097 100.461 72.7242 100.471 70.3459C100.479 68.112 100.59 65.8782 100.686 63.6443C100.754 62.0833 100.823 60.5209 100.974 58.9671C101.071 58.0098 101.733 57.6444 102.634 57.9809C104.094 58.5253 105.557 59.0697 106.981 59.7007C110.877 61.4335 114.852 62.8977 119.043 63.728C119.606 63.8407 119.98 63.6703 120.335 63.2039C121.176 62.0977 122.066 61.0263 122.962 59.9649C123.583 59.2314 124.308 58.5801 124.884 57.8148C126.471 55.7037 128.004 53.5449 129.582 51.4251C129.887 51.0164 129.895 50.7031 129.664 50.2612C128.9 48.7941 128.181 47.3024 127.448 45.818C127.173 45.2592 126.972 44.6512 126.624 44.143C125.577 42.62 124.498 41.1187 123.389 39.6391C121.192 36.715 118.955 33.8284 116.197 31.388C115.064 30.3873 114.041 29.2653 112.959 28.2112C110.815 26.1131 108.8 23.8503 106.48 21.9659C103.58 19.6136 100.461 17.5631 96.9977 16.0122C94.4136 14.8354 92.0674 13.1589 89.704 11.7669V11.7741ZM68.413 122.213C68.413 121.578 68.3827 120.98 68.413 120.387C68.6395 116.427 69.0132 112.471 69.0811 108.508C69.1691 103.294 68.9959 98.0737 68.9829 92.8565C68.9728 88.913 69.0305 84.9694 69.0753 81.0243C69.1142 77.5385 69.1748 74.0512 69.2196 70.5654C69.3158 64.4043 69.4086 58.2475 69.498 52.0951C69.5298 50.0504 69.5283 48.0042 69.6178 45.9624C69.8342 40.9416 70.1084 35.9222 70.3176 30.9014C70.3155 30.4319 70.1611 29.9758 69.8775 29.6018C69.2598 28.8383 68.5968 28.1126 67.8921 27.4286C67.6916 27.2375 67.4273 27.1278 67.1505 27.121C66.986 27.121 66.7753 27.3982 66.6816 27.5961C65.9197 29.1975 65.168 30.8046 64.4422 32.4219C64.2636 32.7769 64.1651 33.1669 64.1536 33.5642C64.3124 37.7937 64.6197 42.0231 64.6543 46.2541C64.699 51.7601 64.5346 57.2675 64.4595 62.775C64.4047 66.7431 64.3874 70.717 64.285 74.6794C64.1941 78.2114 63.9589 81.7406 63.8838 85.2726C63.8131 88.5938 63.9011 91.915 63.8578 95.2363C63.8223 98.0723 63.7367 100.908 63.601 103.744C63.513 105.64 63.2317 107.528 63.1682 109.424C63.0585 112.934 63.047 116.446 62.9993 119.958C62.9892 120.694 62.9993 121.431 62.9993 122.213H68.413ZM82.8663 11.5113C82.9543 9.67015 83.0827 7.8276 83.1188 5.98216C83.1548 4.16704 82.8302 3.78871 81.08 3.30208C80.8722 3.24432 80.6601 3.19667 80.448 3.15768C75.3821 2.26529 70.319 1.44942 65.1348 1.62992C60.6229 1.78876 56.1024 1.70934 51.6555 2.68693C51.2529 2.77646 51.0783 2.91364 51.061 3.32807C51.0365 4.4313 50.9167 5.53741 50.9629 6.6363C51.035 8.25648 51.2197 9.87376 51.3611 11.53C61.8479 10.3763 72.2727 10.7921 82.8663 11.5113ZM71.2179 12.138C71.2179 13.169 71.2266 13.9603 71.2179 14.7516C71.2021 15.8202 70.7764 16.3559 69.7202 16.5364C69.1255 16.6189 68.5258 16.6608 67.9253 16.662C66.582 16.7054 65.2329 16.6736 63.8954 16.779C62.9056 16.8555 62.5044 16.6635 62.3299 15.6946C62.256 15.2679 62.2131 14.8365 62.2014 14.4036C62.1798 13.7899 62.2014 13.1748 62.2014 12.6621H51.3669C51.5704 13.5632 51.7045 14.2635 51.8878 14.9494C52.1186 15.8072 52.5443 16.5075 53.3595 16.9855C54.4561 17.6281 55.4979 18.3631 56.5598 19.0663C59.6028 21.0879 62.6386 23.1095 65.6932 25.1052C65.986 25.2941 66.3359 25.3738 66.6816 25.3304C68.8495 24.905 70.957 24.2144 72.9566 23.2742C75.3272 22.1709 77.7614 21.2078 80.145 20.1305C80.5479 19.9383 80.8629 19.6003 81.0266 19.1847C81.4869 17.7234 81.8505 16.2317 82.2242 14.7444C82.354 14.2231 82.4103 13.6816 82.5257 12.9928L71.2179 12.138ZM61.7917 33.5266C62.1899 32.9808 62.6271 32.5158 62.9084 31.9671C63.6833 30.4581 64.4105 28.9246 65.1059 27.3766C65.1882 27.1932 65.0266 26.7484 64.8433 26.6228C60.7629 23.8243 56.7055 20.9912 52.5443 18.3169C51.1433 17.4173 50.4666 16.275 50.1765 14.7473C49.559 11.4911 49.2834 8.22904 49.888 4.92804C49.9543 4.56848 49.8966 4.18582 49.8966 3.59233C49.4869 4.02553 49.2142 4.28257 48.9761 4.56993C48.272 5.42333 47.5736 6.27963 46.8911 7.15037C46.2984 7.8603 45.9772 8.75804 45.985 9.68315C46.0153 12.6419 45.9691 15.6036 46.0514 18.558C46.086 19.8215 46.34 21.0793 46.5391 22.3327C46.5856 22.6408 46.7153 22.9304 46.9142 23.1702C47.5635 23.9095 48.2359 24.633 48.9342 25.3218C51.6641 27.9946 54.9943 29.7982 58.2739 31.6494C59.4254 32.2978 60.6013 32.8956 61.7917 33.5324V33.5266ZM84.4289 5.10565C84.4592 5.54896 84.5068 5.99083 84.5198 6.43558C84.5933 9.15237 84.3825 11.8694 83.8907 14.5422C83.5415 16.4584 83.2977 18.3934 82.4969 20.1955C82.2271 20.802 81.8606 21.2583 81.1651 21.3868C80.909 21.4511 80.6611 21.5446 80.4263 21.6655C77.1347 23.1278 73.8454 24.5935 70.5586 26.0625C70.2022 26.2214 69.8703 26.438 69.5485 26.617L74.3793 32.7266C74.8381 32.4133 75.1801 32.149 75.5494 31.9339C78.262 30.357 80.8188 28.5722 82.973 26.2676C83.983 25.1817 84.9324 24.0279 85.9655 22.9622C86.9396 21.9836 87.5391 20.6936 87.6595 19.3176C87.8615 16.7833 87.8038 14.2303 87.8875 11.686C87.9856 8.83841 85.9958 7.09693 84.4289 5.10565ZM69.8241 12.5481C67.8359 12.2058 65.9414 12.5972 64.0425 12.7445C63.9112 12.7546 63.6862 12.9654 63.6905 13.0766C63.7179 13.7812 63.7973 14.4845 63.8492 15.0664C65.6816 15.0664 67.3814 15.0881 69.0796 15.0448C69.3307 15.0448 69.7621 14.756 69.7895 14.561C69.8804 13.9083 69.8241 13.2354 69.8241 12.5481Z" fill="black"/>
</svg>
