<svg width="146" height="104" viewBox="0 0 146 104" fill="none" xmlns="http://www.w3.org/2000/svg">
<path d="M2.54782 45.0151C2.14576 53.9753 0.922805 63.7524 4.30513 72.321C7.24368 79.7653 13.4098 86.373 18.679 92.2371C21.4311 95.2999 25.4554 100.416 29.6284 101.7C31.7762 102.36 32.7223 94.9781 32.9177 93.8593C34.4762 84.9332 34.9904 75.3513 34.9904 66.2831C34.9904 61.5221 34.1806 56.0205 34.9904 51.3234C35.4459 48.6813 39.0238 46.6229 40.9382 45.1503C45.6869 41.4974 47.7925 43.6264 52.3382 47.6286C62.2445 56.3504 71.7269 69.9442 72.9753 83.6759C73.0466 84.4607 72.6316 82.1204 72.6599 81.3328C72.8879 74.985 74.0872 68.8237 75.6338 62.6783C77.7707 54.1867 80.8081 45.7362 81.176 36.9045C81.472 29.8021 81.4394 23.8971 77.6164 17.8895C76.5196 16.166 81.8072 18.5108 83.4741 19.6919C96.9229 29.2207 113.038 42.5686 119.882 57.9922C120.743 59.9337 122.798 63.6287 120.783 64.3004C119.306 64.7927 120.077 51.4764 120.152 50.7827C121.22 40.876 124.208 32.0745 124.208 21.9899C124.208 18.1318 126.062 19.3457 126.596 16.9433C127.09 14.7178 134.021 1.29877 127.452 2.02869C125.49 2.24672 125.504 21.1996 128.804 22.9361C133.255 25.279 138.946 25.596 143.673 27.1717" stroke="black" stroke-width="3" stroke-linecap="round"/>
</svg>
