<?xml version="1.0" standalone="no"?>
<!DOCTYPE svg PUBLIC "-//W3C//DTD SVG 20010904//EN"
 "http://www.w3.org/TR/2001/REC-SVG-20010904/DTD/svg10.dtd">
<svg version="1.0" xmlns="http://www.w3.org/2000/svg"
 width="41.000000pt" height="41.000000pt" viewBox="0 0 41.000000 41.000000"
 preserveAspectRatio="xMidYMid meet">

<g transform="translate(0.000000,41.000000) scale(0.100000,-0.100000)"
fill="#000000" stroke="none">
<path d="M83 396 c-4 -8 -19 -16 -33 -18 -18 -2 -25 -10 -27 -28 -1 -14 0 -18
3 -7 3 9 15 17 26 17 11 0 27 -8 34 -17 13 -17 15 -17 28 0 7 9 17 17 21 17 4
0 14 -8 21 -17 13 -17 15 -17 28 0 7 9 17 17 21 17 4 0 14 -8 21 -17 13 -17
15 -17 28 0 25 32 46 21 46 -24 0 -45 -56 -162 -75 -156 -10 4 -10 13 1 79 5
30 3 37 -13 40 -10 2 -24 -3 -30 -12 -12 -13 -14 -13 -25 0 -19 23 -48 13 -48
-16 0 -14 4 -33 9 -43 7 -12 5 -32 -6 -62 -23 -64 -15 -79 46 -79 65 0 91 13
118 58 l22 37 1 -73 0 -73 -132 3 -133 3 -6 125 -5 125 0 -130 1 -130 145 0
145 0 5 100 c4 87 9 106 34 149 27 47 28 50 11 62 -14 10 -22 11 -32 3 -10 -9
-13 -7 -13 8 0 23 -18 43 -38 43 -8 0 -21 8 -28 18 -13 16 -15 16 -28 0 -7
-10 -17 -18 -21 -18 -4 0 -14 8 -21 18 -13 16 -15 16 -28 0 -16 -22 -32 -23
-40 -3 -7 19 -23 19 -33 1z m27 -26 c0 -11 -4 -20 -10 -20 -5 0 -10 9 -10 20
0 11 5 20 10 20 6 0 10 -9 10 -20z m70 0 c0 -11 -4 -20 -10 -20 -5 0 -10 9
-10 20 0 11 5 20 10 20 6 0 10 -9 10 -20z m70 0 c0 -11 -4 -20 -10 -20 -5 0
-10 9 -10 20 0 11 5 20 10 20 6 0 10 -9 10 -20z m110 -65 c0 -8 -7 -15 -15
-15 -16 0 -20 12 -8 23 11 12 23 8 23 -8z m-20 -31 c0 -17 -97 -174 -107 -174
-7 0 -13 3 -13 6 0 6 78 143 93 162 10 13 27 17 27 6z m-190 -16 c16 -10 24
-10 40 -1 25 16 32 3 19 -36 -20 -58 -89 -31 -89 34 0 18 5 19 30 3z m-6 -103
c-4 -8 -1 -15 5 -15 6 0 11 7 11 15 0 21 20 19 21 -2 0 -16 1 -15 8 2 7 18 8
18 18 2 5 -10 7 -31 5 -48 -4 -26 -8 -29 -41 -29 -54 0 -62 9 -50 53 5 20 14
37 19 37 5 0 7 -7 4 -15z"/>
</g>
</svg>
