<?xml version="1.0" standalone="no"?>
<!DOCTYPE svg PUBLIC "-//W3C//DTD SVG 20010904//EN"
 "http://www.w3.org/TR/2001/REC-SVG-20010904/DTD/svg10.dtd">
<svg version="1.0" xmlns="http://www.w3.org/2000/svg"
 width="41.000000pt" height="41.000000pt" viewBox="0 0 41.000000 41.000000"
 preserveAspectRatio="xMidYMid meet">

<g transform="translate(0.000000,41.000000) scale(0.100000,-0.100000)"
fill="#000000" stroke="none">
<path d="M257 383 c-4 -3 -2 -12 4 -19 8 -10 0 -20 -33 -44 -24 -17 -51 -37
-60 -45 -19 -16 -24 -45 -8 -45 6 0 10 9 10 20 0 17 36 48 45 38 1 -2 14 -26
29 -55 19 -39 26 -68 26 -113 l0 -60 -32 -1 c-24 -1 -27 -3 -10 -6 12 -2 22
-11 22 -19 0 -20 20 -17 21 4 0 14 2 14 9 -3 7 -17 9 -17 9 -2 1 12 9 17 31
17 19 0 30 5 30 14 0 7 9 16 20 19 18 5 20 14 20 96 l0 91 -42 26 c-58 37 -68
48 -61 73 5 20 -15 30 -30 14z m31 -64 c-2 -6 -8 -10 -13 -10 -5 0 -11 4 -13
10 -2 6 4 11 13 11 9 0 15 -5 13 -11z m-28 -31 c0 -13 -23 -5 -28 10 -2 7 2
10 12 6 9 -3 16 -11 16 -16z m42 0 c-7 -7 -12 -8 -12 -2 0 6 3 14 7 17 3 4 9
5 12 2 2 -3 -1 -11 -7 -17z m76 -97 c2 -58 0 -71 -12 -71 -11 0 -16 15 -19 63
-2 50 -4 44 -5 -30 l-2 -93 -30 0 -30 0 0 65 c0 51 6 77 26 116 24 48 26 50
47 36 19 -12 22 -25 25 -86z m-78 70 c-1 -3 -7 -17 -14 -30 l-14 -25 -16 31
c-15 29 -15 32 2 35 20 5 42 -1 42 -11z"/>
<path d="M27 184 c-14 -18 -15 -28 -7 -43 13 -25 13 -78 0 -86 -5 -3 -7 -12
-3 -21 4 -12 22 -14 92 -12 78 3 86 5 86 23 0 17 -8 20 -47 23 -43 3 -48 5
-48 28 0 30 24 32 44 2 16 -22 16 -22 31 -3 20 28 20 104 -1 112 -9 3 -25 1
-35 -5 -24 -16 -46 -15 -52 1 -4 10 -6 10 -6 0 -1 -15 -28 -18 -33 -4 -1 5
-11 -2 -21 -15z m151 -31 c-2 -26 -8 -38 -18 -38 -10 0 -16 12 -18 38 -3 32 0
37 18 37 18 0 21 -5 18 -37z m-48 2 c0 -11 -12 -15 -50 -15 -38 0 -50 4 -50
15 0 11 12 15 50 15 38 0 50 -4 50 -15z m-40 -60 c0 -18 -5 -25 -20 -25 -15 0
-20 7 -20 25 0 18 5 25 20 25 15 0 20 -7 20 -25z m90 -55 c0 -6 -32 -10 -75
-10 -43 0 -75 4 -75 10 0 6 32 10 75 10 43 0 75 -4 75 -10z"/>
</g>
</svg>
