<svg width="221" height="189" viewBox="0 0 221 189" fill="none" xmlns="http://www.w3.org/2000/svg">
<path d="M25.5233 136.623V157.53H20.4306V144.992L15.7548 157.53H11.6448L6.93924 144.962V157.53H1.84649V136.623H7.86249L13.7296 151.097L19.5371 136.623H25.5233ZM45.2977 148.953C45.2977 149.43 45.2679 149.926 45.2084 150.442H33.6827C33.7621 151.475 34.0897 152.269 34.6655 152.825C35.2611 153.361 35.9858 153.629 36.8396 153.629C38.1103 153.629 38.9938 153.093 39.4902 152.021H44.9105C44.6326 153.113 44.1263 154.095 43.3917 154.969C42.6769 155.843 41.7735 156.528 40.6815 157.024C39.5895 157.52 38.3684 157.769 37.0183 157.769C35.3902 157.769 33.9408 157.421 32.6701 156.726C31.3994 156.031 30.4066 155.039 29.6919 153.748C28.9771 152.457 28.6197 150.948 28.6197 149.221C28.6197 147.494 28.9672 145.985 29.6621 144.694C30.3769 143.404 31.3696 142.411 32.6403 141.716C33.911 141.021 35.3703 140.674 37.0183 140.674C38.6265 140.674 40.0561 141.011 41.3069 141.686C42.5578 142.361 43.5306 143.324 44.2256 144.575C44.9403 145.826 45.2977 147.285 45.2977 148.953ZM40.0858 147.613C40.0858 146.739 39.788 146.044 39.1924 145.528C38.5967 145.012 37.8522 144.754 36.9587 144.754C36.105 144.754 35.3803 145.002 34.7846 145.498C34.2088 145.995 33.8514 146.699 33.7125 147.613H40.0858ZM47.4185 149.191C47.4185 147.484 47.7362 145.985 48.3716 144.694C49.0268 143.404 49.9103 142.411 51.0222 141.716C52.134 141.021 53.375 140.674 54.7449 140.674C55.9164 140.674 56.9389 140.912 57.8125 141.388C58.706 141.865 59.391 142.49 59.8675 143.265V140.912H64.9602V157.53H59.8675V155.177C59.3711 155.952 58.6762 156.577 57.7827 157.054C56.9091 157.53 55.8866 157.769 54.7152 157.769C53.365 157.769 52.134 157.421 51.0222 156.726C49.9103 156.011 49.0268 155.009 48.3716 153.718C47.7362 152.408 47.4185 150.899 47.4185 149.191ZM59.8675 149.221C59.8675 147.95 59.5101 146.948 58.7953 146.213C58.1004 145.478 57.2466 145.111 56.234 145.111C55.2215 145.111 54.3578 145.478 53.643 146.213C52.9481 146.928 52.6006 147.921 52.6006 149.191C52.6006 150.462 52.9481 151.475 53.643 152.229C54.3578 152.964 55.2215 153.331 56.234 153.331C57.2466 153.331 58.1004 152.964 58.7953 152.229C59.5101 151.494 59.8675 150.492 59.8675 149.221ZM75.8519 157.769C74.4025 157.769 73.1119 157.52 71.9802 157.024C70.8485 156.528 69.955 155.853 69.2998 154.999C68.6446 154.125 68.2773 153.152 68.1979 152.08H73.231C73.2906 152.656 73.5586 153.123 74.0352 153.48C74.5117 153.837 75.0974 154.016 75.7923 154.016C76.4277 154.016 76.9141 153.897 77.2516 153.659C77.609 153.4 77.7877 153.073 77.7877 152.676C77.7877 152.199 77.5395 151.852 77.0432 151.633C76.5468 151.395 75.7427 151.137 74.6308 150.859C73.4395 150.581 72.4468 150.293 71.6526 149.995C70.8584 149.678 70.1734 149.191 69.5976 148.536C69.0218 147.861 68.7339 146.958 68.7339 145.826C68.7339 144.873 68.992 144.009 69.5083 143.235C70.0443 142.441 70.8187 141.815 71.8313 141.359C72.8637 140.902 74.0848 140.674 75.4945 140.674C77.5792 140.674 79.2173 141.19 80.4085 142.222C81.6197 143.255 82.3146 144.625 82.4933 146.332H77.7877C77.7083 145.756 77.4502 145.3 77.0134 144.962C76.5964 144.625 76.0405 144.456 75.3456 144.456C74.7499 144.456 74.2933 144.575 73.9756 144.813C73.6579 145.032 73.4991 145.339 73.4991 145.737C73.4991 146.213 73.7473 146.57 74.2436 146.809C74.7599 147.047 75.554 147.285 76.6262 147.523C77.8572 147.841 78.8599 148.159 79.6342 148.477C80.4085 148.774 81.0836 149.271 81.6594 149.966C82.255 150.641 82.5628 151.554 82.5826 152.706C82.5826 153.678 82.3047 154.552 81.7487 155.326C81.2127 156.081 80.4284 156.677 79.3959 157.113C78.3834 157.55 77.202 157.769 75.8519 157.769ZM102.555 140.912V157.53H97.4623V155.267C96.9461 156.001 96.2412 156.597 95.3478 157.054C94.4742 157.491 93.5013 157.709 92.4291 157.709C91.1584 157.709 90.0366 157.431 89.0637 156.875C88.0909 156.299 87.3364 155.475 86.8003 154.403C86.2642 153.331 85.9962 152.07 85.9962 150.621V140.912H91.0591V149.936C91.0591 151.048 91.347 151.911 91.9228 152.527C92.4986 153.142 93.273 153.45 94.2458 153.45C95.2386 153.45 96.0228 153.142 96.5986 152.527C97.1744 151.911 97.4623 151.048 97.4623 149.936V140.912H102.555ZM111.753 143.682C112.348 142.768 113.093 142.053 113.986 141.537C114.88 141.001 115.872 140.733 116.964 140.733V146.124H115.565C114.294 146.124 113.341 146.402 112.706 146.958C112.07 147.494 111.753 148.447 111.753 149.817V157.53H106.66V140.912H111.753V143.682ZM135.511 148.953C135.511 149.43 135.481 149.926 135.422 150.442H123.896C123.975 151.475 124.303 152.269 124.879 152.825C125.474 153.361 126.199 153.629 127.053 153.629C128.323 153.629 129.207 153.093 129.703 152.021H135.124C134.846 153.113 134.339 154.095 133.605 154.969C132.89 155.843 131.987 156.528 130.895 157.024C129.803 157.52 128.582 157.769 127.231 157.769C125.603 157.769 124.154 157.421 122.883 156.726C121.613 156.031 120.62 155.039 119.905 153.748C119.19 152.457 118.833 150.948 118.833 149.221C118.833 147.494 119.18 145.985 119.875 144.694C120.59 143.404 121.583 142.411 122.853 141.716C124.124 141.021 125.583 140.674 127.231 140.674C128.84 140.674 130.269 141.011 131.52 141.686C132.771 142.361 133.744 143.324 134.439 144.575C135.153 145.826 135.511 147.285 135.511 148.953ZM130.299 147.613C130.299 146.739 130.001 146.044 129.406 145.528C128.81 145.012 128.065 144.754 127.172 144.754C126.318 144.754 125.593 145.002 124.998 145.498C124.422 145.995 124.065 146.699 123.926 147.613H130.299ZM159.849 140.733C161.914 140.733 163.552 141.359 164.763 142.609C165.994 143.86 166.61 145.598 166.61 147.821V157.53H161.547V148.506C161.547 147.434 161.259 146.61 160.683 146.034C160.127 145.439 159.353 145.141 158.36 145.141C157.367 145.141 156.583 145.439 156.007 146.034C155.451 146.61 155.173 147.434 155.173 148.506V157.53H150.11V148.506C150.11 147.434 149.823 146.61 149.247 146.034C148.691 145.439 147.916 145.141 146.924 145.141C145.931 145.141 145.147 145.439 144.571 146.034C144.015 146.61 143.737 147.434 143.737 148.506V157.53H138.644V140.912H143.737V142.997C144.253 142.302 144.928 141.756 145.762 141.359C146.596 140.942 147.539 140.733 148.592 140.733C149.842 140.733 150.954 141.001 151.927 141.537C152.92 142.073 153.694 142.838 154.25 143.83C154.826 142.917 155.61 142.173 156.603 141.597C157.596 141.021 158.678 140.733 159.849 140.733ZM186.284 148.953C186.284 149.43 186.254 149.926 186.194 150.442H174.669C174.748 151.475 175.076 152.269 175.651 152.825C176.247 153.361 176.972 153.629 177.825 153.629C179.096 153.629 179.98 153.093 180.476 152.021H185.896C185.618 153.113 185.112 154.095 184.378 154.969C183.663 155.843 182.759 156.528 181.667 157.024C180.575 157.52 179.354 157.769 178.004 157.769C176.376 157.769 174.927 157.421 173.656 156.726C172.385 156.031 171.393 155.039 170.678 153.748C169.963 152.457 169.606 150.948 169.606 149.221C169.606 147.494 169.953 145.985 170.648 144.694C171.363 143.404 172.355 142.411 173.626 141.716C174.897 141.021 176.356 140.674 178.004 140.674C179.612 140.674 181.042 141.011 182.293 141.686C183.544 142.361 184.517 143.324 185.211 144.575C185.926 145.826 186.284 147.285 186.284 148.953ZM181.072 147.613C181.072 146.739 180.774 146.044 180.178 145.528C179.583 145.012 178.838 144.754 177.945 144.754C177.091 144.754 176.366 145.002 175.771 145.498C175.195 145.995 174.837 146.699 174.698 147.613H181.072ZM199.543 140.733C201.489 140.733 203.037 141.368 204.189 142.639C205.36 143.89 205.946 145.617 205.946 147.821V157.53H200.883V148.506C200.883 147.394 200.595 146.531 200.019 145.915C199.444 145.3 198.669 144.992 197.696 144.992C196.724 144.992 195.949 145.3 195.373 145.915C194.798 146.531 194.51 147.394 194.51 148.506V157.53H189.417V140.912H194.51V143.116C195.026 142.381 195.721 141.805 196.595 141.388C197.468 140.952 198.451 140.733 199.543 140.733ZM219.194 153.212V157.53H216.603C214.756 157.53 213.317 157.084 212.285 156.19C211.252 155.277 210.736 153.798 210.736 151.753V145.141H208.711V140.912H210.736V136.861H215.829V140.912H219.164V145.141H215.829V151.812C215.829 152.308 215.948 152.666 216.186 152.884C216.424 153.103 216.821 153.212 217.377 153.212H219.194Z" fill="#252836"/>
<path d="M40.0799 180.331H34.0133L32.9709 183.291H30.4901L35.6811 168.781H38.433L43.624 183.291H41.1223L40.0799 180.331ZM39.4128 178.392L37.057 171.658L34.6804 178.392H39.4128ZM45.5356 177.537C45.5356 176.356 45.7719 175.32 46.2444 174.431C46.7308 173.527 47.398 172.833 48.2458 172.346C49.0936 171.86 50.0664 171.616 51.1644 171.616C52.5542 171.616 53.7009 171.95 54.6043 172.617C55.5215 173.27 56.14 174.208 56.4597 175.432H53.8954C53.687 174.862 53.3534 174.417 52.8948 174.097C52.4361 173.778 51.8593 173.618 51.1644 173.618C50.1915 173.618 49.4132 173.965 48.8295 174.66C48.2597 175.341 47.9747 176.3 47.9747 177.537C47.9747 178.774 48.2597 179.74 48.8295 180.435C49.4132 181.13 50.1915 181.477 51.1644 181.477C52.5403 181.477 53.4507 180.873 53.8954 179.664H56.4597C56.1261 180.831 55.5007 181.762 54.5834 182.457C53.6661 183.138 52.5264 183.479 51.1644 183.479C50.0664 183.479 49.0936 183.235 48.2458 182.749C47.398 182.249 46.7308 181.554 46.2444 180.664C45.7719 179.761 45.5356 178.718 45.5356 177.537ZM58.4827 177.537C58.4827 176.356 58.7189 175.32 59.1915 174.431C59.6779 173.527 60.3451 172.833 61.1929 172.346C62.0407 171.86 63.0135 171.616 64.1115 171.616C65.5013 171.616 66.6479 171.95 67.5513 172.617C68.4686 173.27 69.0871 174.208 69.4068 175.432H66.8425C66.634 174.862 66.3005 174.417 65.8418 174.097C65.3832 173.778 64.8064 173.618 64.1115 173.618C63.1386 173.618 62.3603 173.965 61.7766 174.66C61.2068 175.341 60.9218 176.3 60.9218 177.537C60.9218 178.774 61.2068 179.74 61.7766 180.435C62.3603 181.13 63.1386 181.477 64.1115 181.477C65.4874 181.477 66.3978 180.873 66.8425 179.664H69.4068C69.0732 180.831 68.4478 181.762 67.5305 182.457C66.6132 183.138 65.4735 183.479 64.1115 183.479C63.0135 183.479 62.0407 183.235 61.1929 182.749C60.3451 182.249 59.6779 181.554 59.1915 180.664C58.7189 179.761 58.4827 178.718 58.4827 177.537ZM82.6249 171.804V183.291H80.2483V181.936C79.873 182.408 79.3796 182.784 78.7681 183.062C78.1705 183.326 77.5311 183.458 76.8501 183.458C75.9467 183.458 75.1337 183.27 74.411 182.895C73.7021 182.52 73.1393 181.964 72.7223 181.227C72.3193 180.491 72.1177 179.601 72.1177 178.559V171.804H74.4735V178.204C74.4735 179.233 74.7306 180.025 75.2449 180.581C75.7591 181.123 76.461 181.394 77.3505 181.394C78.24 181.394 78.9418 181.123 79.4561 180.581C79.9842 180.025 80.2483 179.233 80.2483 178.204V171.804H82.6249ZM88.584 173.472C88.9314 172.888 89.3901 172.436 89.9599 172.117C90.5436 171.783 91.2316 171.616 92.0238 171.616V174.076H91.4192C90.4881 174.076 89.7792 174.313 89.2928 174.785C88.8203 175.258 88.584 176.078 88.584 177.245V183.291H86.2074V171.804H88.584V173.472ZM93.8629 177.495C93.8629 176.342 94.0992 175.32 94.5717 174.431C95.0582 173.541 95.7114 172.853 96.5314 172.367C97.3653 171.867 98.2826 171.616 99.2833 171.616C100.187 171.616 100.972 171.797 101.639 172.158C102.32 172.506 102.862 172.944 103.265 173.472V171.804H105.663V183.291H103.265V181.582C102.862 182.124 102.313 182.575 101.618 182.937C100.923 183.298 100.131 183.479 99.2416 183.479C98.2548 183.479 97.3514 183.228 96.5314 182.728C95.7114 182.214 95.0582 181.505 94.5717 180.602C94.0992 179.684 93.8629 178.649 93.8629 177.495ZM103.265 177.537C103.265 176.745 103.098 176.057 102.765 175.473C102.445 174.889 102.021 174.445 101.493 174.139C100.965 173.833 100.395 173.68 99.7836 173.68C99.1721 173.68 98.6023 173.833 98.0741 174.139C97.546 174.431 97.1151 174.869 96.7816 175.452C96.4619 176.022 96.3021 176.703 96.3021 177.495C96.3021 178.288 96.4619 178.983 96.7816 179.58C97.1151 180.178 97.546 180.636 98.0741 180.956C98.6162 181.262 99.186 181.415 99.7836 181.415C100.395 181.415 100.965 181.262 101.493 180.956C102.021 180.65 102.445 180.206 102.765 179.622C103.098 179.024 103.265 178.329 103.265 177.537ZM108.439 177.537C108.439 176.356 108.675 175.32 109.148 174.431C109.634 173.527 110.301 172.833 111.149 172.346C111.997 171.86 112.97 171.616 114.068 171.616C115.457 171.616 116.604 171.95 117.507 172.617C118.425 173.27 119.043 174.208 119.363 175.432H116.799C116.59 174.862 116.257 174.417 115.798 174.097C115.339 173.778 114.762 173.618 114.068 173.618C113.095 173.618 112.316 173.965 111.733 174.66C111.163 175.341 110.878 176.3 110.878 177.537C110.878 178.774 111.163 179.74 111.733 180.435C112.316 181.13 113.095 181.477 114.068 181.477C115.443 181.477 116.354 180.873 116.799 179.664H119.363C119.029 180.831 118.404 181.762 117.487 182.457C116.569 183.138 115.43 183.479 114.068 183.479C112.97 183.479 111.997 183.235 111.149 182.749C110.301 182.249 109.634 181.554 109.148 180.664C108.675 179.761 108.439 178.718 108.439 177.537ZM132.518 171.804L125.472 188.691H123.012L125.347 183.103L120.823 171.804H123.471L126.702 180.56L130.058 171.804H132.518ZM142.997 181.373H147.897V183.291H140.621V168.802H142.997V181.373ZM160.859 177.266C160.859 177.697 160.831 178.086 160.775 178.434H151.999C152.068 179.351 152.409 180.087 153.02 180.643C153.632 181.199 154.382 181.477 155.272 181.477C156.55 181.477 157.454 180.942 157.982 179.872H160.546C160.199 180.928 159.566 181.797 158.649 182.478C157.746 183.145 156.62 183.479 155.272 183.479C154.174 183.479 153.187 183.235 152.311 182.749C151.45 182.249 150.769 181.554 150.268 180.664C149.782 179.761 149.539 178.718 149.539 177.537C149.539 176.356 149.775 175.32 150.247 174.431C150.734 173.527 151.408 172.833 152.27 172.346C153.145 171.86 154.146 171.616 155.272 171.616C156.356 171.616 157.322 171.853 158.17 172.325C159.017 172.798 159.678 173.465 160.15 174.327C160.623 175.174 160.859 176.154 160.859 177.266ZM158.378 176.516C158.364 175.64 158.051 174.938 157.44 174.41C156.828 173.882 156.071 173.618 155.168 173.618C154.348 173.618 153.646 173.882 153.062 174.41C152.478 174.924 152.131 175.626 152.02 176.516H158.378ZM168.085 181.165L171.337 171.804H173.86L169.482 183.291H166.646L162.289 171.804H164.833L168.085 181.165ZM186.631 177.266C186.631 177.697 186.603 178.086 186.548 178.434H177.771C177.84 179.351 178.181 180.087 178.792 180.643C179.404 181.199 180.154 181.477 181.044 181.477C182.322 181.477 183.226 180.942 183.754 179.872H186.318C185.971 180.928 185.338 181.797 184.421 182.478C183.518 183.145 182.392 183.479 181.044 183.479C179.946 183.479 178.959 183.235 178.083 182.749C177.222 182.249 176.541 181.554 176.04 180.664C175.554 179.761 175.311 178.718 175.311 177.537C175.311 176.356 175.547 175.32 176.02 174.431C176.506 173.527 177.18 172.833 178.042 172.346C178.917 171.86 179.918 171.616 181.044 171.616C182.128 171.616 183.094 171.853 183.942 172.325C184.789 172.798 185.45 173.465 185.922 174.327C186.395 175.174 186.631 176.154 186.631 177.266ZM184.15 176.516C184.136 175.64 183.823 174.938 183.212 174.41C182.6 173.882 181.843 173.618 180.94 173.618C180.12 173.618 179.418 173.882 178.834 174.41C178.25 174.924 177.903 175.626 177.792 176.516H184.15ZM191.793 167.864V183.291H189.416V167.864H191.793Z" fill="#252836"/>
<path d="M72.777 99.9175C73.2238 102.27 74.5938 103.447 76.887 103.447C78.4654 103.447 79.5823 102.747 80.2375 101.347C80.8927 99.9473 81.2203 97.6689 81.2203 94.512C80.5651 95.4353 79.6716 96.15 78.5399 96.6563C77.4082 97.1626 76.1424 97.4158 74.7427 97.4158C72.8366 97.4158 71.139 97.0286 69.6499 96.2543C68.1608 95.4501 66.9844 94.2738 66.1207 92.7251C65.2868 91.1466 64.8699 89.2406 64.8699 87.0069C64.8699 84.803 65.3166 82.8821 66.2101 81.2441C67.1333 79.606 68.4288 78.3403 70.0966 77.4468C71.7942 76.5534 73.7896 76.1066 76.0829 76.1066C80.4906 76.1066 83.5731 77.4766 85.3302 80.2166C87.0874 82.9565 87.9659 86.992 87.9659 92.323C87.9659 96.1947 87.6086 99.3963 86.8938 101.928C86.2088 104.429 85.0324 106.336 83.3646 107.646C81.7266 108.956 79.478 109.612 76.6189 109.612C74.3555 109.612 72.4197 109.165 70.8114 108.271C69.233 107.378 68.0119 106.202 67.1482 104.742C66.3143 103.283 65.8378 101.675 65.7187 99.9175H72.777ZM76.4849 91.3849C77.7358 91.3849 78.7335 91.0126 79.478 90.2681C80.2226 89.4937 80.5949 88.4513 80.5949 87.1409C80.5949 85.7114 80.2077 84.6094 79.4334 83.8351C78.659 83.0608 77.6166 82.6736 76.3062 82.6736C74.9958 82.6736 73.9534 83.0757 73.1791 83.8798C72.4345 84.6541 72.0623 85.7263 72.0623 87.0963C72.0623 88.3769 72.4345 89.4193 73.1791 90.2234C73.9534 90.9977 75.0554 91.3849 76.4849 91.3849ZM100.708 99.9175C101.155 102.27 102.525 103.447 104.818 103.447C106.397 103.447 107.513 102.747 108.169 101.347C108.824 99.9473 109.152 97.6689 109.152 94.512C108.496 95.4353 107.603 96.15 106.471 96.6563C105.339 97.1626 104.074 97.4158 102.674 97.4158C100.768 97.4158 99.0703 97.0286 97.5811 96.2543C96.092 95.4501 94.9156 94.2738 94.052 92.7251C93.2181 91.1466 92.8011 89.2406 92.8011 87.0069C92.8011 84.803 93.2478 82.8821 94.1413 81.2441C95.0646 79.606 96.3601 78.3403 98.0279 77.4468C99.7255 76.5534 101.721 76.1066 104.014 76.1066C108.422 76.1066 111.504 77.4766 113.261 80.2166C115.019 82.9565 115.897 86.992 115.897 92.323C115.897 96.1947 115.54 99.3963 114.825 101.928C114.14 104.429 112.964 106.336 111.296 107.646C109.658 108.956 107.409 109.612 104.55 109.612C102.287 109.612 100.351 109.165 98.7427 108.271C97.1642 107.378 95.9431 106.202 95.0794 104.742C94.2455 103.283 93.769 101.675 93.6499 99.9175H100.708ZM104.416 91.3849C105.667 91.3849 106.665 91.0126 107.409 90.2681C108.154 89.4937 108.526 88.4513 108.526 87.1409C108.526 85.7114 108.139 84.6094 107.365 83.8351C106.59 83.0608 105.548 82.6736 104.237 82.6736C102.927 82.6736 101.885 83.0757 101.11 83.8798C100.366 84.6541 99.9935 85.7263 99.9935 87.0963C99.9935 88.3769 100.366 89.4193 101.11 90.2234C101.885 90.9977 102.987 91.3849 104.416 91.3849ZM119.794 85.086C119.794 82.6736 120.479 80.8122 121.849 79.5018C123.249 78.1914 125.051 77.5362 127.255 77.5362C129.459 77.5362 131.245 78.1914 132.615 79.5018C133.985 80.8122 134.67 82.6736 134.67 85.086C134.67 87.4983 133.985 89.3597 132.615 90.6701C131.245 91.9805 129.459 92.6357 127.255 92.6357C125.051 92.6357 123.249 91.9805 121.849 90.6701C120.479 89.3597 119.794 87.4983 119.794 85.086ZM150.127 78.0276L132.928 109.478H125.557L142.756 78.0276H150.127ZM127.21 82.0035C125.78 82.0035 125.066 83.031 125.066 85.086C125.066 87.1111 125.78 88.1237 127.21 88.1237C127.895 88.1237 128.431 87.8706 128.818 87.3643C129.205 86.858 129.399 86.0986 129.399 85.086C129.399 83.031 128.669 82.0035 127.21 82.0035ZM141.059 102.419C141.059 100.007 141.744 98.1454 143.114 96.835C144.484 95.5246 146.271 94.8694 148.474 94.8694C150.678 94.8694 152.465 95.5246 153.835 96.835C155.205 98.1454 155.89 100.007 155.89 102.419C155.89 104.832 155.205 106.693 153.835 108.003C152.465 109.314 150.678 109.969 148.474 109.969C146.271 109.969 144.484 109.314 143.114 108.003C141.744 106.693 141.059 104.832 141.059 102.419ZM148.43 99.3367C147.745 99.3367 147.209 99.5899 146.822 100.096C146.464 100.602 146.285 101.377 146.285 102.419C146.285 104.444 147 105.457 148.43 105.457C149.115 105.457 149.651 105.204 150.038 104.698C150.425 104.191 150.619 103.432 150.619 102.419C150.619 101.407 150.425 100.647 150.038 100.141C149.651 99.6048 149.115 99.3367 148.43 99.3367Z" fill="#252836"/>
<path d="M161.023 13.1629C162.366 14.1602 163.662 15.2057 165.06 16.1301C165.826 16.6357 165.919 16.9957 165.393 17.7488C163.226 20.8436 161.133 23.9972 158.988 27.1023C157.689 29.0041 157.685 29.0013 155.74 27.801C153.476 26.4278 153.479 26.4269 154.767 24.0598C156.488 20.9037 158.215 17.7539 159.92 14.5903C160.078 14.2187 160.198 13.8324 160.279 13.4372L161.023 13.1629Z" fill="#F703D0"/>
<path d="M170.761 39.3138C170.501 39.1655 170.252 38.9972 170.018 38.8105C169.238 38.1046 168.506 37.3462 167.701 36.6684C167.23 36.2619 167.223 35.9278 167.596 35.4885L176.021 25.4922C176.425 25.0232 176.844 24.966 177.319 25.4092C178.457 26.4718 179.636 27.4987 180.724 28.6102C180.817 28.7759 180.866 28.9626 180.865 29.1525C180.864 29.3423 180.814 29.5289 180.72 29.6941C177.574 32.8109 174.385 35.8849 171.205 38.9679C171.098 39.0675 170.976 39.1443 170.761 39.3138Z" fill="#F703D0"/>
<path d="M91.808 10.5707C92.2734 12.6235 92.7397 14.6798 93.2051 16.7325C93.3866 17.5328 93.1861 17.9669 92.3425 18.1355C91.4161 18.3229 90.5017 18.5794 89.5948 18.8529C88.9467 19.0489 88.5759 18.899 88.3629 18.2267C87.0662 14.1438 85.7542 10.0656 84.4269 5.99217C84.2253 5.37003 84.3957 5.00313 85.0039 4.83127C86.5138 4.41344 88.0261 4.00637 89.5332 3.59295C90.3278 3.37506 90.4551 3.91973 90.58 4.48756L91.9536 10.5453L91.808 10.5707Z" fill="#F703D0"/>
<path d="M148.428 7.85778C148.309 8.18291 148.235 8.42238 148.14 8.65518C146.507 12.5685 144.853 16.4752 143.234 20.4004C142.937 21.128 142.586 21.3473 141.832 21.0277C140.898 20.6319 139.929 20.3274 138.951 20.0057C138.392 19.8268 138.208 19.5666 138.397 18.9617C139.676 14.8105 140.937 10.652 142.179 6.48629C142.38 5.81825 142.693 5.61511 143.381 5.89314C144.8 6.443 146.262 6.9152 147.679 7.43912C147.941 7.55562 148.192 7.69576 148.428 7.85778Z" fill="#F703D0"/>
<path d="M20.1567 66.5903C20.4352 66.6667 20.7204 66.7228 20.993 66.8233C24.8753 68.2559 28.7481 69.7134 32.6475 71.1045C33.4723 71.4042 33.7574 71.7433 33.4247 72.596C33.0921 73.4786 32.8072 74.3783 32.5712 75.2911C32.3867 75.9631 32.01 76.1542 31.3549 75.9858C27.1713 74.9044 22.9847 73.8325 18.7953 72.7701C18.1847 72.6142 17.9452 72.3591 18.1709 71.6854C18.6699 70.2478 19.0872 68.7835 19.525 67.3259C19.6057 67.0078 19.6704 66.6858 19.7188 66.3613L20.1567 66.5903Z" fill="#F703D0"/>
<path d="M49.7628 23.8039C49.8732 23.5779 50.0158 23.3689 50.1861 23.1835C51.4017 22.2022 52.6355 21.2509 53.8632 20.2895C54.4411 19.834 54.8161 19.9188 55.2643 20.5604C57.6405 23.9797 60.0658 27.3653 62.4947 30.75C62.9634 31.3983 63.0874 31.9286 62.2812 32.4623C61.475 32.9961 60.7631 33.7121 59.9377 34.2276C59.7533 34.3098 59.5515 34.3454 59.3502 34.3311C59.1489 34.3168 58.9543 34.2532 58.7838 34.1459C55.8698 30.8749 53.0088 27.5542 50.1351 24.244L49.7628 23.8039Z" fill="#F703D0"/>
<path d="M47.5199 46.4882C47.2498 46.3757 46.9899 46.2402 46.7431 46.0833C43.3147 43.4648 39.8942 40.8143 36.4587 38.1974C35.9694 37.8254 35.9006 37.5052 36.3059 37.0397C37.3335 35.8634 38.3463 34.6716 39.3554 33.4806C39.7671 33.01 40.1328 32.9535 40.628 33.4185C43.7828 36.416 46.9687 39.3838 50.1151 42.3945C50.2239 42.5335 50.2961 42.6975 50.3249 42.8715C50.3538 43.0456 50.3385 43.2241 50.2804 43.3908C49.5675 44.3524 48.7594 45.245 47.977 46.1506C47.8349 46.2764 47.682 46.3894 47.5199 46.4882Z" fill="#F703D0"/>
<path d="M181.642 52.1292C181.396 52.0036 181.17 51.8411 180.973 51.6471C180.268 50.7754 179.616 49.8623 179.021 48.9127C178.953 48.722 178.935 48.5172 178.969 48.3176C179.002 48.1179 179.086 47.93 179.212 47.7713C182.562 45.0534 185.968 42.3984 189.333 39.696C189.942 39.2108 190.285 39.2573 190.719 39.9023C191.47 41.0531 192.28 42.1641 193.147 43.2307C193.778 43.9968 193.647 44.453 192.862 44.9478C190.194 46.632 187.543 48.3425 184.886 50.0466C183.831 50.7161 182.794 51.385 181.642 52.1292Z" fill="#F703D0"/>
<path d="M14.6094 91.4588C14.8108 89.5266 14.9549 87.8752 15.175 86.2255C15.2689 85.5212 15.8668 85.6045 16.3842 85.6834C18.7859 86.0494 21.1899 86.4149 23.5964 86.7798C25.3165 87.0388 27.0383 87.3049 28.7643 87.5399C29.5809 87.6528 30.0146 87.913 29.7976 88.8753C29.6392 89.7295 29.5507 90.595 29.5329 91.4633C29.4832 92.2292 29.2227 92.6656 28.3314 92.6074C24.056 92.3618 19.7775 92.1698 15.5021 91.9243C15.1686 91.9056 14.8516 91.5926 14.6094 91.4588Z" fill="#F703D0"/>
<path d="M189.722 66.8417C189.532 66.7037 189.105 66.5553 188.955 66.2611C188.455 65.2951 188.069 64.2771 187.625 63.2837C187.365 62.7049 187.524 62.3557 188.105 62.0654C191.939 60.1471 195.773 58.2252 199.579 56.2528C200.257 55.9029 200.604 56.0808 200.867 56.6588C201.511 58.0787 202.124 59.5131 202.75 60.9407C203.008 61.5275 202.708 61.7916 202.186 61.993C198.89 63.2436 195.598 64.5106 192.312 65.7942C191.525 66.0971 190.751 66.4234 189.722 66.8417Z" fill="#F703D0"/>
<path d="M210.203 94.1008C210.22 96.093 210.262 97.8002 210.213 99.5018C210.206 99.7034 209.679 100.068 209.402 100.063C205.977 99.983 202.57 99.8425 199.155 99.7225C198.209 99.688 197.264 99.642 196.318 99.6415C195.667 99.6419 195.4 99.3853 195.422 98.7126C195.481 97.7706 195.472 96.8257 195.394 95.8853C195.274 94.822 195.788 94.5848 196.698 94.5407C198.877 94.4238 201.057 94.2729 203.235 94.13C205.163 94.0059 207.086 93.8567 209.013 93.7745C209.425 93.8193 209.826 93.9295 210.203 94.1008Z" fill="#CBCBCB"/>
<path d="M104.386 1.18901C105.98 1.12564 107.577 1.07664 109.174 0.990107C109.967 0.949862 109.949 1.48606 109.951 1.99861C109.971 4.42399 109.983 6.85007 109.986 9.27687C109.991 11.1207 109.953 12.9707 109.985 14.816C109.997 15.5377 109.711 15.7611 109.024 15.7661C108.007 15.7739 106.993 15.8755 105.978 15.9208C105.338 15.9527 105.024 15.7184 104.953 14.991C104.544 10.8806 104.071 6.77683 103.625 2.67097C103.554 2.02662 103.37 1.31378 104.386 1.18901Z" fill="#F703D0"/>
<path d="M126.439 16.8332C124.945 16.6059 123.609 16.4372 122.298 16.1647C122.107 16.1249 121.885 15.5755 121.913 15.2824C122.282 10.9841 122.688 6.68479 123.1 2.39186C123.155 1.81715 123.393 1.46509 124.102 1.58733C125.533 1.84013 126.97 2.06895 128.405 2.20397C129.423 2.28996 129.489 2.78064 129.325 3.59141C128.743 6.43253 128.189 9.27869 127.627 12.1265C127.39 13.3348 127.182 14.5518 126.913 15.7523C126.792 16.1279 126.634 16.4901 126.439 16.8332Z" fill="#F703D0"/>
<path d="M77.4085 22.874C77.2139 23.1874 76.9672 23.4653 76.679 23.696C75.8274 24.1796 74.8871 24.506 74.0468 25.006C73.3362 25.4274 72.9721 25.1402 72.6494 24.5682L67.2306 14.9074C67.1601 14.78 67.1232 14.6337 67.0471 14.5151C65.6083 12.2756 66.015 12.6172 68.0107 11.5044C68.9274 10.9909 69.9172 10.6156 70.8556 10.1311C71.4525 9.82599 71.7705 9.97651 72.0272 10.5748C72.9602 12.7366 73.9312 14.8823 74.8777 17.0372C75.7063 18.9057 76.5041 20.7548 77.4085 22.874Z" fill="#F703D0"/>
<path d="M28.3185 48.3346C29.393 49.1173 30.2622 49.8295 31.2074 50.4264C34.091 52.2503 36.9956 54.0443 39.9211 55.8084C40.6047 56.2194 40.7226 56.5888 40.2863 57.2688C39.7235 58.1247 39.3315 59.0663 38.7654 59.9078C38.6429 60.0504 38.4869 60.1605 38.3112 60.228C38.1356 60.2955 37.9459 60.3183 37.7593 60.2944C33.6549 58.3499 29.5768 56.3541 25.4923 54.3636C25.4029 54.3197 25.3445 54.2122 25.1636 54.0155L28.3185 48.3346Z" fill="#F703D0"/>
<path d="M200.244 76.2206C202.205 75.6552 204.155 75.1111 206.123 74.5101C206.891 74.2756 207.284 74.4884 207.433 75.2809C207.721 76.7022 208.037 78.1249 208.397 79.5299C208.57 80.2943 208.287 80.5811 207.564 80.6997C203.397 81.393 199.228 82.0956 195.058 82.8073C194.278 82.9389 193.92 82.6465 193.794 81.875C193.653 80.9776 193.459 80.0892 193.214 79.2145C192.991 78.4348 193.265 78.071 194.009 77.8645C196.087 77.3141 198.158 76.7351 200.232 76.1668L200.244 76.2206Z" fill="#CBCBCB"/>
</svg>
