<svg width="54" height="54" viewBox="0 0 54 54" fill="none" xmlns="http://www.w3.org/2000/svg">
<g clipPath="url(#clip0_1515_4886)">
<path d="M4.5 12.375V8.98425C4.50412 8.39335 4.74053 7.82779 5.15815 7.40974C5.57578 6.99169 6.14111 6.75471 6.732 6.75H47.268C48.501 6.75 49.5 7.75125 49.5 8.98425V45.0158C49.4959 45.6066 49.2595 46.1722 48.8419 46.5903C48.4242 47.0083 47.8589 47.2453 47.268 47.25H6.732C6.13983 47.2494 5.57212 47.0137 5.1536 46.5948C4.73509 46.1759 4.5 45.6079 4.5 45.0158V42.75H45V16.425L27 32.625L4.5 12.375ZM0 22.5H11.25V27H0V22.5ZM0 33.75H18V38.25H0V33.75Z" fill="#F703D0"/>
</g>
<defs>
<clipPath id="clip0_1515_4886">
<rect width="54" height="54" fill="white"/>
</clipPath>
</defs>
</svg>
