<svg width="54" height="54" viewBox="0 0 54 54" fill="none" xmlns="http://www.w3.org/2000/svg">
<g clipPath="url(#clip0_1515_4893)">
<path d="M27 31.5V49.5H9C9 44.7261 10.8964 40.1477 14.2721 36.7721C17.6477 33.3964 22.2261 31.5 27 31.5ZM40.5 48.375L33.8872 51.8512L35.1495 44.4893L29.8013 39.2738L37.1947 38.1982L40.5 31.5L43.8075 38.1982L51.1987 39.2738L45.8505 44.4893L47.1105 51.8512L40.5 48.375ZM27 29.25C19.5413 29.25 13.5 23.2087 13.5 15.75C13.5 8.29125 19.5413 2.25 27 2.25C34.4587 2.25 40.5 8.29125 40.5 15.75C40.5 23.2087 34.4587 29.25 27 29.25Z" fill="#F703D0"/>
</g>
<defs>
<clipPath id="clip0_1515_4893">
<rect width="54" height="54" fill="white"/>
</clipPath>
</defs>
</svg>
